<svg xmlns="http://www.w3.org/2000/svg" viewBox="0 0 24 30" fill="none" x="0px" y="0px"><path d="M11 15C11 14.4477 11.4477 14 12 14C12.5523 14 13 14.4477 13 15V16C13 16.5523 12.5523 17 12 17C11.4477 17 11 16.5523 11 16V15Z" fill="black"/><path fill-rule="evenodd" clip-rule="evenodd" d="M16.9985 10.1256C16.9995 10.0839 17 10.042 17 10V7C17 4.23858 14.7614 2 12 2C9.23858 2 7 4.23858 7 7V10C7 10.042 7.00052 10.0839 7.00155 10.1256C5.27553 10.5691 4 12.1356 4 14V18C4 20.2091 5.79086 22 8 22H16C18.2091 22 20 20.2091 20 18V14C20 12.1356 18.7245 10.5691 16.9985 10.1256ZM15 10V7C15 5.34315 13.6569 4 12 4C10.3431 4 9 5.34315 9 7V10H15ZM18 14C18 12.8954 17.1046 12 16 12H8C6.89543 12 6 12.8954 6 14V18C6 19.1046 6.89543 20 8 20H16C17.1046 20 18 19.1046 18 18V14Z" fill="black"/><text x="0" y="39" fill="#000000" font-size="5px" font-weight="bold" font-family="'Helvetica Neue', Helvetica, Arial-Unicode, Arial, Sans-serif">Created by Alex Bickov</text><text x="0" y="44" fill="#000000" font-size="5px" font-weight="bold" font-family="'Helvetica Neue', Helvetica, Arial-Unicode, Arial, Sans-serif">from the Noun Project</text></svg>