<svg xmlns="http://www.w3.org/2000/svg" version="1.1" viewBox="-5.0 -10.0 110.0 135.0">
 <path d="m48.102 87.5h26.699c6.6992 0 12.199-5.5 12.199-12.199v-50.602c0-6.6992-5.5-12.199-12.199-12.199h-26.699c-6.7031 0-12.102 5.5-12.102 12.199v11h6v-11c0-3.3984 2.8008-6.1992 6.1992-6.1992h26.699c3.3984 0 6.1992 2.8008 6.1992 6.1992v50.699c0 3.3984-2.8008 6.1992-6.1992 6.1992l-26.797 0.003906c-3.3984 0-6.1992-2.8008-6.1992-6.1992l-0.003906-12.801h-6v12.699c0.10156 6.6992 5.5 12.199 12.203 12.199z"/>
 <path d="m49.898 65.398 4.2031 4.2031 19.098-19.102-19.098-19.102-4.2031 4.2031 11.301 11.398h-48.199v6h49.199z"/>
</svg>