<svg xmlns="http://www.w3.org/2000/svg" viewBox="0 0 64 80" fill="none" x="0px" y="0px"><path d="M47.109 4.5549C50.5155 1.14837 56.0386 1.14836 59.4451 4.5549C62.8517 7.96143 62.8517 13.4845 59.4451 16.891L58.8219 17.5142L46.4858 5.17812L47.109 4.5549Z" fill="black"/><path d="M43.6573 8.00655L22.0374 29.6265L34.3736 41.9626L55.9935 20.3427L43.6573 8.00655Z" fill="black"/><path d="M19.8869 33.1328L30.8673 44.1131L20.3476 45.9696C19.7049 46.083 19.0473 45.8757 18.5858 45.4142C18.1243 44.9527 17.917 44.2951 18.0305 43.6524L19.8869 33.1328Z" fill="black"/><path d="M54 36C54 34.8954 53.1046 34 52 34C50.8954 34 50 34.8954 50 36L50 56C50 57.1046 49.1046 58 48 58L8 58C6.89543 58 6 57.1046 6 56L6 16C6 14.8954 6.89543 14 8 14L28 14C29.1046 14 30 13.1046 30 12C30 10.8954 29.1046 10 28 10L8 10C4.68629 10 2 12.6863 2 16L2 56C2 59.3137 4.68629 62 8 62L48 62C51.3137 62 54 59.3137 54 56L54 36Z" fill="black"/></svg>