<svg xmlns="http://www.w3.org/2000/svg" version="1.1" viewBox="-5.0 -10.0 110.0 135.0">
 <path d="m58.77 87.418c1.1445 0 2.082-0.9375 2.082-2.082 0-1.1445-0.9375-2.082-2.082-2.082l-42.957-0.003906v-2.6445c0-15.73 12.793-28.523 28.52-28.523 7.6055 0 14.75 2.957 20.145 8.332 0.8125 0.8125 2.125 0.8125 2.9375 0s0.8125-2.125 0-2.9375c-4.375-4.3555-9.75-7.293-15.625-8.668 6.707-2.8945 11.418-9.582 11.418-17.332 0-10.418-8.4805-18.895-18.875-18.895s-18.875 8.4805-18.875 18.895c0 7.7695 4.707 14.438 11.418 17.332-14.438 3.3945-25.23 16.332-25.23 31.793v4.7305c0 1.1445 0.9375 2.082 2.082 2.082zm-29.145-55.961c0-8.125 6.6055-14.73 14.707-14.73 8.1055 0 14.707 6.6055 14.707 14.73s-6.6055 14.707-14.707 14.707c-8.1016 0.003907-14.707-6.582-14.707-14.707z"/>
 <path d="m67.668 74.418c-1.1445 0-2.082 0.9375-2.082 2.082s0.9375 2.082 2.082 2.082h6.75v6.75c0 1.1445 0.9375 2.082 2.082 2.082s2.082-0.9375 2.082-2.082v-6.75h6.75c1.1445 0 2.082-0.9375 2.082-2.082s-0.9375-2.082-2.082-2.082h-6.75v-6.75c0-1.1445-0.9375-2.082-2.082-2.082s-2.082 0.9375-2.082 2.082v6.75z"/>
</svg>