<svg xmlns="http://www.w3.org/2000/svg" xmlns:xlink="http://www.w3.org/1999/xlink" version="1.1" x="0px" y="0px" viewBox="0 0 100 125" enable-background="new 0 0 100 100" xml:space="preserve"><path d="M93.5,88.622L65.954,61.078c4.279-5.763,6.842-12.881,6.842-20.61c0-19.133-15.511-34.648-34.648-34.648  C19.013,5.82,3.5,21.335,3.5,40.468c0,19.135,15.513,34.648,34.648,34.648c7.715,0,14.813-2.55,20.572-6.813l27.55,27.548  L93.5,88.622z M38.148,67.822c-15.083,0-27.354-12.27-27.354-27.354c0-15.082,12.27-27.354,27.354-27.354  s27.354,12.271,27.354,27.354C65.501,55.552,53.231,67.822,38.148,67.822"/></svg>