<svg xmlns="http://www.w3.org/2000/svg" version="1.1" viewBox="-5.0 -10.0 110.0 135.0">
 <path d="m50.012 0c-27.578 0-50.012 22.41-50.012 49.988 0 13.277 5.1992 25.363 13.672 34.324 9.125 9.6523 22.039 15.688 36.34 15.688 27.578 0 49.988-22.434 49.988-50.012s-22.41-49.988-49.988-49.988zm0 6.25c24.199 0 43.738 19.539 43.738 43.738 0 9.5742-3.0625 18.418-8.2578 25.617-3.7578-10.598-12.266-18.961-23.012-22.664 5.043-3.8008 8.3125-9.8359 8.3125-16.609 0-11.445-9.3398-20.809-20.781-20.809-11.445 0-20.789 9.3633-20.789 20.809 0 6.7734 3.2773 12.809 8.3203 16.609-10.75 3.6992-19.277 12.059-23.039 22.656-5.1953-7.1953-8.2539-16.039-8.2539-25.609 0-24.199 19.562-43.738 43.762-43.738zm0 15.527c8.0664 0 14.531 6.4922 14.531 14.559 0 8.0664-6.4648 14.531-14.531 14.531-8.0664 0-14.539-6.4648-14.539-14.531 0-8.0664 6.4727-14.559 14.539-14.559zm0 35.34c15.133 0 27.578 10.32 30.621 24.141-7.8828 7.7305-18.684 12.492-30.621 12.492-11.934 0-22.738-4.7578-30.629-12.48 3.0391-13.824 15.488-24.152 30.629-24.152z"/>
</svg>